<?xml version="1.0" encoding="UTF-8" standalone="no"?>
<!DOCTYPE svg PUBLIC "-//W3C//DTD SVG 1.1//EN" "http://www.w3.org/Graphics/SVG/1.1/DTD/svg11.dtd">
<svg width="100%" height="100%" viewBox="0 0 2144 272" version="1.1" xmlns="http://www.w3.org/2000/svg" xmlns:xlink="http://www.w3.org/1999/xlink" xml:space="preserve" xmlns:serif="http://www.serif.com/" style="fill-rule:evenodd;clip-rule:evenodd;stroke-linejoin:round;stroke-miterlimit:2;">
    <g transform="matrix(1,0,0,1,-611.271633,-1281.59659)">
        <g transform="matrix(1.218889,0,0,1.218889,263.119545,501.864283)">
            <path d="M309.356,680.213L291.773,710.669L379.514,761.326L379.514,862.641L414.681,862.641L414.681,761.326L502.422,710.669L484.839,680.213L397.098,730.871L309.356,680.213Z" style="fill:none;"/>
        </g>
        <g transform="matrix(6.086762,0,0,6.086762,-4876.013794,-7206.222369)">
            <rect x="997.995" y="1398.466" width="7.46" height="36.377" style="fill-rule:nonzero;"/>
        </g>
        <g transform="matrix(6.086762,0,0,6.086762,-4876.013794,-7206.222369)">
            <path d="M1010.585,1404.651L1010.585,1398.466L1040.29,1398.466L1040.29,1404.651L1029.179,1404.651L1029.179,1434.843L1021.719,1434.843L1021.719,1404.651L1010.585,1404.651Z" style="fill-rule:nonzero;"/>
        </g>
        <g transform="matrix(6.086762,0,0,6.086762,-4876.013794,-7206.222369)">
            <path d="M1045.407,1404.613L1045.407,1398.466L1059.599,1398.466C1062.36,1398.466 1064.709,1398.955 1066.646,1399.932C1068.582,1400.909 1070.06,1402.286 1071.079,1404.062C1072.098,1405.838 1072.607,1407.919 1072.607,1410.303C1072.607,1412.705 1072.091,1414.771 1071.059,1416.502C1070.027,1418.232 1068.529,1419.559 1066.566,1420.481C1066.436,1420.542 1066.304,1420.601 1066.171,1420.658L1073.918,1434.843L1065.646,1434.843L1058.714,1421.865L1052.867,1421.865L1052.867,1434.843L1045.407,1434.843L1045.407,1415.828L1058.243,1415.828C1059.759,1415.828 1061.009,1415.62 1061.993,1415.203C1062.976,1414.786 1063.71,1414.169 1064.194,1413.351C1064.679,1412.533 1064.921,1411.517 1064.921,1410.303C1064.921,1409.074 1064.679,1408.039 1064.194,1407.197C1063.71,1406.355 1062.974,1405.714 1061.987,1405.273C1061,1404.833 1059.744,1404.613 1058.221,1404.613L1045.407,1404.613Z"/>
        </g>
        <g transform="matrix(6.086762,0,0,6.086762,-4876.013794,-7206.222369)">
            <path d="M1093.255,1435.35C1090.25,1435.35 1087.62,1434.795 1085.365,1433.685C1083.111,1432.575 1081.36,1431.024 1080.114,1429.031C1078.867,1427.038 1078.244,1424.722 1078.244,1422.083L1078.244,1398.466L1085.704,1398.466L1085.704,1421.466C1085.704,1422.882 1086.018,1424.138 1086.646,1425.234C1087.274,1426.329 1088.153,1427.19 1089.282,1427.818C1090.411,1428.445 1091.735,1428.759 1093.255,1428.759C1094.784,1428.759 1096.113,1428.445 1097.243,1427.818C1098.372,1427.19 1099.249,1426.329 1099.874,1425.234C1100.498,1424.138 1100.81,1422.882 1100.81,1421.466L1100.81,1398.466L1108.27,1398.466L1108.27,1422.083C1108.27,1424.722 1107.645,1427.038 1106.394,1429.031C1105.143,1431.024 1103.392,1432.575 1101.14,1433.685C1098.889,1434.795 1096.26,1435.35 1093.255,1435.35Z" style="fill-rule:nonzero;"/>
        </g>
        <g transform="matrix(6.086762,0,0,6.086762,-4876.013794,-7206.222369)">
            <path d="M1153.837,1404.808L1150.073,1398.466L1158.806,1398.466L1162.246,1404.808L1153.837,1404.808ZM1163.544,1421.163C1163.544,1421.163 1167.76,1413.675 1167.979,1413.156C1168.456,1412.032 1168.993,1410.913 1169.591,1409.801L1175.543,1398.466L1184.238,1398.466L1170.978,1421.163L1170.978,1434.843L1163.544,1434.843L1163.544,1421.163Z"/>
        </g>
        <g transform="matrix(6.086762,0,0,6.086762,-4876.013794,-7206.222369)">
            <path d="M1198.294,1398.466L1204.882,1398.466L1217.641,1434.843L1209.357,1434.843L1207.524,1429.326L1192.686,1429.326L1190.918,1434.843L1182.69,1434.843L1186.577,1423.48L1205.582,1423.48L1198.294,1398.466Z"/>
        </g>
        <g transform="matrix(6.086762,0,0,6.086762,-4876.013794,-7206.222369)">
            <path d="M1229.745,1429.326L1229.745,1434.843L1222.116,1434.843L1222.116,1429.326L1229.745,1429.326ZM1222.116,1398.466L1228.721,1398.466C1228.721,1398.466 1246.169,1425.009 1246.479,1425.762C1246.436,1425.149 1246.394,1424.521 1246.354,1423.879C1246.258,1422.355 1246.18,1420.891 1246.12,1419.487C1246.06,1418.083 1246.03,1416.897 1246.03,1415.929L1246.03,1398.466L1253.648,1398.466L1253.648,1434.843L1245.309,1434.843L1241.863,1429.326L1241.955,1429.326L1222.116,1398.466Z"/>
        </g>
        <g transform="matrix(1,0,0,1.007042,-7.31101,660.113644)">
            <path d="M1128.888,641.277L1178.617,641.277L1103.258,861.147L1063.233,861.147"/>
        </g>
        <g transform="matrix(1,0,0,1.007042,931.114317,660.113644)">
            <path d="M1128.888,641.277L1178.617,641.277L1103.258,861.147L1063.233,861.147"/>
        </g>
        <g transform="matrix(6.628911,-3.827204,3.827204,6.628911,-6174.379128,-600.552844)">
            <rect x="648.485" y="662.696" width="5.6" height="35.5" style="fill:url(#_Linear1);fill-rule:nonzero;"/>
        </g>
        <g transform="matrix(3.827204,-6.628911,6.628911,3.827204,-6256.079333,3130.568168)">
            <rect x="648.485" y="662.696" width="5.6" height="35.5" style="fill:url(#_Linear2);fill-rule:nonzero;"/>
        </g>
        <g transform="matrix(0,-7.654407,7.654407,0,-4461.273279,6402.663852)">
            <rect x="648.485" y="662.696" width="5.6" height="35.5" style="fill:url(#_Linear3);fill-rule:nonzero;"/>
        </g>
        <g transform="matrix(-3.827204,-6.628911,6.628911,-3.827204,-1270.8778,8338.97881)">
            <rect x="648.485" y="662.696" width="5.6" height="35.5" style="fill:url(#_Linear4);fill-rule:nonzero;"/>
        </g>
        <g transform="matrix(-6.628911,-3.827204,3.827204,-6.628911,2460.243212,8420.679014)">
            <rect x="648.485" y="662.696" width="5.6" height="35.5" style="fill:url(#_Linear5);fill-rule:nonzero;"/>
        </g>
        <g transform="matrix(-7.654407,-0,0,-7.654407,5732.338895,6625.872961)">
            <rect x="648.485" y="662.696" width="5.6" height="35.5" style="fill:url(#_Linear6);fill-rule:nonzero;"/>
        </g>
        <g transform="matrix(1.447129,0,0,1.447129,172.48589,353.300605)">
            <circle cx="397.098" cy="684.947" r="17.584"/>
        </g>
        <g transform="matrix(1.218889,0,0,1.218889,263.119545,501.864283)">
            <path d="M309.356,680.213L291.773,710.669L379.514,761.326L379.514,862.641L414.681,862.641L414.681,761.326L502.422,710.669L484.839,680.213L397.098,730.871L309.356,680.213Z"/>
        </g>
        <g transform="matrix(1,0,0,1.099025,0,-129.317941)">
            <path d="M958.569,1305.907L970.876,1341.029C970.876,1341.029 1020.883,1340.948 1020.638,1341.029C1020.393,1341.111 1008.992,1305.907 1008.992,1305.907L958.569,1305.907Z"/>
        </g>
        <g transform="matrix(1,0,0,1.099029,938.425327,-129.323295)">
            <path d="M958.569,1305.907L970.876,1341.029C970.876,1341.029 1020.883,1340.948 1020.638,1341.029C1020.393,1341.111 1008.992,1305.907 1008.992,1305.907L958.569,1305.907Z"/>
        </g>
        <path d="M2177.364,1305.907L2198.299,1344.507L2147.118,1344.507L2124.208,1305.907L2177.364,1305.907Z"/>
        <rect x="2562.716" y="1493.745" width="46.438" height="33.58"/>
    </g>
    <defs>
        <linearGradient id="_Linear1" x1="0" y1="0" x2="1" y2="0" gradientUnits="userSpaceOnUse" gradientTransform="matrix(54.859575,83.679558,-83.679558,54.859575,626.365854,638.244153)"><stop offset="0" style="stop-color:rgb(128,128,128);stop-opacity:1"/><stop offset="1" style="stop-color:rgb(128,128,128);stop-opacity:0"/></linearGradient>
        <linearGradient id="_Linear2" x1="0" y1="0" x2="1" y2="0" gradientUnits="userSpaceOnUse" gradientTransform="matrix(5.670007,99.898411,-99.898411,5.670007,650.805313,631.438495)"><stop offset="0" style="stop-color:rgb(128,128,128);stop-opacity:1"/><stop offset="1" style="stop-color:rgb(128,128,128);stop-opacity:0"/></linearGradient>
        <linearGradient id="_Linear3" x1="0" y1="0" x2="1" y2="0" gradientUnits="userSpaceOnUse" gradientTransform="matrix(-45.038836,89.349565,-89.349565,-45.038836,675.373335,637.764352)"><stop offset="0" style="stop-color:rgb(128,128,128);stop-opacity:1"/><stop offset="1" style="stop-color:rgb(128,128,128);stop-opacity:0"/></linearGradient>
        <linearGradient id="_Linear4" x1="0" y1="0" x2="1" y2="0" gradientUnits="userSpaceOnUse" gradientTransform="matrix(-83.679558,54.859575,-54.859575,-83.679558,693.486938,655.526715)"><stop offset="0" style="stop-color:rgb(128,128,128);stop-opacity:1"/><stop offset="1" style="stop-color:rgb(128,128,128);stop-opacity:0"/></linearGradient>
        <linearGradient id="_Linear5" x1="0" y1="0" x2="1" y2="0" gradientUnits="userSpaceOnUse" gradientTransform="matrix(-99.898411,5.670007,-5.670007,-99.898411,700.292596,679.966174)"><stop offset="0" style="stop-color:rgb(128,128,128);stop-opacity:1"/><stop offset="1" style="stop-color:rgb(128,128,128);stop-opacity:0"/></linearGradient>
        <linearGradient id="_Linear6" x1="0" y1="0" x2="1" y2="0" gradientUnits="userSpaceOnUse" gradientTransform="matrix(-89.349565,-45.038836,45.038836,-89.349565,693.966739,704.534196)"><stop offset="0" style="stop-color:rgb(128,128,128);stop-opacity:1"/><stop offset="1" style="stop-color:rgb(128,128,128);stop-opacity:0"/></linearGradient>
    </defs>
</svg>
