<?xml version="1.0" encoding="UTF-8" standalone="no"?><!DOCTYPE svg PUBLIC "-//W3C//DTD SVG 1.1//EN" "http://www.w3.org/Graphics/SVG/1.1/DTD/svg11.dtd"><svg width="100%" height="100%" viewBox="0 0 1701 334" version="1.1" xmlns="http://www.w3.org/2000/svg" xmlns:xlink="http://www.w3.org/1999/xlink" xml:space="preserve" xmlns:serif="http://www.serif.com/" style="fill-rule:evenodd;clip-rule:evenodd;stroke-linejoin:round;stroke-miterlimit:2;"><g id="Livello_x0020_1"><path d="M198.748,95.28c1.152,-4.565 0.904,-10.948 0.489,-15.652c-10.029,-3.386 -31.904,4.664 -40.716,9.189c-15.567,7.993 -40.683,34.387 -53.346,47.757c-7.981,8.426 -15.92,17.347 -24.63,25.214c-7.134,6.444 -16.221,21.438 -20.111,30.422c-16.543,38.206 -4.822,82.322 30.846,106.32c47.92,32.245 110.952,5.06 125.833,-47.929c9.769,-34.782 -3.589,-68.577 -28.089,-92.585c-9.345,-9.157 -30.73,-32.341 -37.123,-37.925c-2.249,0.915 -10.453,8.988 -11.685,11.209c7.17,7.504 14.026,14.635 21.286,21.94c15.059,15.155 30.639,28.356 38.324,48.729c4.421,11.719 5.87,25.291 3.463,37.711c-9.274,47.864 -64.004,73.558 -105.034,44.154c-18.198,-13.042 -29.817,-33.807 -29.186,-57.782c0.67,-25.448 12.237,-41.981 28.354,-58.62c14.252,-14.717 28.936,-28.971 43.175,-43.876c17.014,-17.81 30.879,-27.913 58.149,-28.276Z" style="fill:#1a1a1a;"/><path d="M53.582,77.44l16.511,-3.369c5.642,-22.005 15.37,-38.673 36.005,-48.898c45.272,-22.435 94.949,9.241 98.126,56.452c2.504,37.226 -19.037,52.256 -23.7,60.902l10.442,11.18c8.006,-6.165 17.578,-21.216 21.963,-30.85c17.47,-38.391 4.279,-86.219 -34.211,-109.676c-51.612,-31.454 -120.683,5.072 -125.135,64.258Z" style="fill:#1a1a1a;"/><path d="M49.356,211.899c-53.228,-24.808 -39.544,-111.516 22.436,-116.523c30.047,-2.427 44.5,14.764 50.437,17.413l10.338,-10.97c-13.344,-16.557 -44.261,-24.898 -65.342,-22.059c-49.747,6.698 -79.319,57.296 -62.466,104.523c6.324,17.719 24.791,39.569 43.139,44.722l1.459,-17.106Z" style="fill:#1a1a1a;"/><path d="M224.26,101.812c10.02,7.201 16.304,10.103 23.161,20.992c20.837,33.085 6.626,75.689 -23.215,89.049l1.15,16.604c4.313,0.671 15.449,-7.494 18.886,-10.419c32.993,-28.068 38.761,-72.886 14.405,-107.157c-6.228,-8.763 -25.235,-25.852 -33.206,-25.457l-1.182,16.388Z" style="fill:#1a1a1a;"/><path d="M74.383,234.702c18.823,1.58 45.407,-8.993 58.544,-21.963c5.609,-5.538 38.441,-37.052 40.364,-40.956l-10.904,-10.498c-14.466,12.463 -33.926,40.897 -57.709,51.282c-13.963,6.815 -11.931,6.107 -29.633,6.301c-0.246,3.956 -0.502,12.513 -0.663,15.833Z" style="fill:#1a1a1a;"/><path d="M140.68,212.718c9.822,17.044 39.892,24.407 58.45,21.974c1.111,-4.051 0.653,-11.926 -0.606,-15.984c-10.408,-0.343 -17.597,-1 -27.254,-5.02c-11.151,-4.642 -13.307,-7.707 -19.417,-11.956c-6.165,5.792 -6.43,6.076 -11.173,10.985Z" style="fill:#1a1a1a;"/><path d="M54.997,104.627c-0.03,12.768 17.255,42.324 27.381,48.546l10.531,-10.644c-5.194,-9.757 -13.648,-9.004 -22.544,-42.044c-4.648,0.424 -11.532,1.736 -15.369,4.142Z" style="fill:#1a1a1a;"/><path d="M100.349,172.009c5.993,5.944 15.177,17.926 22.015,22.167c2.398,-2.133 9.074,-8.7 10.656,-10.937c-1.819,-3.311 -17.97,-18.777 -22.025,-22.417l-10.645,11.187Z" style="fill:#1a1a1a;"/><path d="M505.682,186.052l0,-186.052l-2.326,0l-86.307,92.251l-86.567,-92.251l-2.326,0l0,186.052l41.862,0l0,-83.206l45.738,48.58l2.326,0l45.737,-48.58l0,83.206l41.862,0Z" style="fill:#1a1a1a;fill-rule:nonzero;"/><path id="_1" d="M661.243,146.516l-62.017,0l0,-36.435l56.849,0l0,-39.536l-56.849,0l0,-28.424l62.017,0l0,-39.536l-103.879,0l0,183.468l103.879,0l0,-39.536Z" style="fill:#1a1a1a;fill-rule:nonzero;"/><path id="_2" d="M847.036,186.052l-43.929,-64.343c18.605,-11.369 29.974,-29.717 29.974,-50.647c0,-43.93 -34.368,-68.478 -78.296,-68.478l-51.423,0l0,183.468l41.862,0l0,-80.881l55.299,80.881l46.513,-0Zm-92.251,-146.257c19.897,0 34.109,11.369 34.109,31.267c0,18.863 -12.403,31.525 -35.917,31.525l-7.753,0l0,-62.792l9.561,0Z" style="fill:#1a1a1a;fill-rule:nonzero;"/><path id="_3" d="M993.552,133.596c-12.92,10.853 -25.065,15.504 -39.278,15.504c-28.942,0 -52.456,-23.515 -52.456,-54.782c0,-31.267 23.515,-54.782 52.456,-54.782c13.954,0 25.581,4.393 38.502,14.73l23.773,-30.751c-17.571,-15.246 -39.278,-23.515 -62.275,-23.515c-51.94,0 -94.318,42.379 -94.318,94.318c0,51.939 42.378,94.318 94.318,94.318c22.997,0 45.221,-8.269 63.051,-24.291l-23.773,-30.75Z" style="fill:#1a1a1a;fill-rule:nonzero;"/><path id="_4" d="M1190.973,186.052l-83.981,-186.052l-2.326,0l-83.982,186.052l41.862,0l9.561,-20.93l65.118,0l9.561,20.93l44.187,0Zm-102.07,-58.141l15.763,-35.144l15.762,35.144l-31.525,0Z" style="fill:#1a1a1a;fill-rule:nonzero;"/><path id="_5" d="M1316.817,2.584l-134.888,0l0,39.536l46.513,0l0,143.931l41.862,0l0,-143.931l46.513,0l0,-39.536Z" style="fill:#1a1a1a;fill-rule:nonzero;"/><path id="_6" d="M1333.355,94.318c0,51.939 42.378,94.318 94.318,94.318c51.939,0 94.317,-42.379 94.317,-94.318c0,-51.939 -42.378,-94.318 -94.317,-94.318c-51.94,0 -94.318,42.379 -94.318,94.318Zm41.862,0c0,-31.267 23.515,-54.782 52.456,-54.782c28.941,0 52.456,23.515 52.456,54.782c0,31.267 -23.516,54.782 -52.456,54.782c-28.942,0 -52.456,-23.515 -52.456,-54.782Z" style="fill:#1a1a1a;fill-rule:nonzero;"/><path id="_7" d="M1700.032,186.052l-43.929,-64.343c18.605,-11.369 29.974,-29.717 29.974,-50.647c0,-43.93 -34.368,-68.478 -78.296,-68.478l-51.423,0l0,183.468l41.862,0l0,-80.881l55.299,80.881l46.513,-0Zm-92.251,-146.257c19.897,0 34.109,11.369 34.109,31.267c0,18.863 -12.403,31.525 -35.917,31.525l-7.753,0l0,-62.792l9.561,0Z" style="fill:#1a1a1a;fill-rule:nonzero;"/><path d="M359.562,257.831l0,7.517l-28.217,0l0,-7.517l28.217,0Zm-20.017,-13l8.784,0l0,53.418c0,2.45 0.5,4.233 1.483,5.349c0.999,1.134 2.649,1.683 4.967,1.683c0.55,0 1.266,-0.066 2.117,-0.183c0.867,-0.133 1.65,-0.267 2.367,-0.399l1.817,7.416c-0.917,0.333 -1.95,0.583 -3.1,0.733c-1.167,0.167 -2.3,0.25 -3.45,0.25c-4.716,0 -8.4,-1.251 -11.033,-3.733c-2.634,-2.5 -3.951,-5.967 -3.951,-10.434l0,-54.1Z" style="fill:#808080;fill-rule:nonzero;"/><path id="_1_0" d="M370.794,312.415l0,-54.583l8.5,0l0,8.4l0.583,0c1,-2.784 2.8,-5 5.4,-6.667c2.583,-1.683 5.5,-2.516 8.75,-2.516c0.651,0 1.434,0.017 2.334,0.05c0.883,0.033 1.6,0.066 2.117,0.1l0,8.833c-0.267,-0.067 -0.917,-0.167 -1.95,-0.3c-1.05,-0.133 -2.15,-0.201 -3.317,-0.201c-2.616,0 -4.95,0.55 -7.017,1.65c-2.067,1.084 -3.683,2.584 -4.85,4.483c-1.183,1.9 -1.767,4.101 -1.767,6.567l0,34.183l-8.784,0Z" style="fill:#808080;fill-rule:nonzero;"/><path id="_2_1" d="M423.728,313.681c-3.45,0 -6.583,-0.65 -9.399,-1.95c-2.817,-1.299 -5.05,-3.2 -6.717,-5.717c-1.667,-2.499 -2.484,-5.55 -2.484,-9.133c0,-3.116 0.617,-5.649 1.851,-7.616c1.233,-1.95 2.883,-3.484 4.95,-4.617c2.066,-1.117 4.367,-1.95 6.867,-2.5c2.499,-0.567 5.033,-1 7.566,-1.333c3.25,-0.417 5.916,-0.733 7.967,-0.966c2.05,-0.234 3.567,-0.617 4.567,-1.167c0.983,-0.567 1.482,-1.5 1.482,-2.833l0,-0.3c0,-2.283 -0.416,-4.2 -1.266,-5.783c-0.85,-1.584 -2.117,-2.8 -3.816,-3.634c-1.684,-0.849 -3.801,-1.283 -6.351,-1.283c-2.6,0 -4.833,0.417 -6.683,1.233c-1.851,0.816 -3.367,1.833 -4.517,3.05c-1.15,1.217 -2.034,2.467 -2.617,3.733l-8.45,-2.783c1.4,-3.317 3.3,-5.917 5.666,-7.783c2.383,-1.884 5.001,-3.201 7.867,-3.984c2.867,-0.783 5.7,-1.167 8.5,-1.167c1.817,0 3.9,0.217 6.216,0.651c2.334,0.45 4.584,1.316 6.75,2.616c2.15,1.3 3.95,3.234 5.367,5.784c1.416,2.55 2.117,5.967 2.117,10.233l0,35.983l-8.634,0l0,-7.416l-0.582,0c-0.634,1.266 -1.617,2.567 -2.983,3.933c-1.367,1.35 -3.15,2.466 -5.334,3.383c-2.166,0.917 -4.817,1.367 -7.9,1.367Zm1.518,-7.766c3.249,-0 6,-0.634 8.25,-1.9c2.25,-1.266 3.95,-2.916 5.117,-4.95c1.183,-2.034 1.766,-4.167 1.766,-6.384l0,-7.566c-0.366,0.433 -1.133,0.816 -2.349,1.15c-1.2,0.35 -2.583,0.65 -4.117,0.9c-1.55,0.266 -3.05,0.483 -4.5,0.666c-1.449,0.183 -2.6,0.317 -3.433,0.417c-2.117,0.249 -4.1,0.699 -5.933,1.333c-1.85,0.633 -3.317,1.566 -4.417,2.783c-1.116,1.233 -1.667,2.883 -1.667,4.967c0,1.884 0.483,3.468 1.467,4.734c0.966,1.266 2.317,2.233 4,2.883c1.7,0.651 3.633,0.967 5.817,0.967Z" style="fill:#808080;fill-rule:nonzero;"/><path id="_3_2" d="M485.046,313.581c-4.517,0 -8.517,-1.15 -12,-3.467c-3.483,-2.301 -6.201,-5.584 -8.167,-9.817c-1.95,-4.217 -2.916,-9.233 -2.916,-15.033c0,-5.767 0.983,-10.75 2.95,-14.967c1.967,-4.217 4.7,-7.467 8.183,-9.733c3.483,-2.283 7.483,-3.417 12,-3.417c3.55,0 6.367,0.583 8.451,1.75c2.082,1.167 3.683,2.5 4.817,3.984c1.116,1.483 1.967,2.7 2.567,3.683l0.683,0l0,-26.9l8.784,0l0,72.75l-8.5,0l0,-8.45l-0.966,0c-0.6,1.016 -1.467,2.267 -2.617,3.783c-1.149,1.517 -2.783,2.867 -4.883,4.05c-2.1,1.2 -4.9,1.783 -8.383,1.783Zm1.333,-7.851c3.317,0 6.117,-0.882 8.383,-2.616c2.283,-1.75 4.016,-4.167 5.183,-7.25c1.167,-3.1 1.75,-6.667 1.75,-10.701c0,-4.033 -0.567,-7.55 -1.734,-10.566c-1.149,-3.017 -2.867,-5.367 -5.15,-7.05c-2.267,-1.701 -5.083,-2.55 -8.433,-2.55c-3.45,0 -6.333,0.9 -8.634,2.683c-2.283,1.8 -3.999,4.217 -5.15,7.25c-1.134,3.05 -1.701,6.467 -1.701,10.233c0,3.817 0.567,7.267 1.734,10.383c1.15,3.1 2.883,5.584 5.2,7.417c2.316,1.833 5.15,2.766 8.55,2.766Z" style="fill:#808080;fill-rule:nonzero;"/><path id="_4_3" d="M525.828,312.415l0,-54.583l8.784,0l0,54.583l-8.784,0Zm4.434,-63.534c-1.65,0 -3.084,-0.567 -4.284,-1.7c-1.217,-1.134 -1.817,-2.5 -1.817,-4.1c0,-1.633 0.6,-3 1.817,-4.134c1.2,-1.116 2.634,-1.683 4.284,-1.683c1.7,0 3.15,0.567 4.35,1.683c1.217,1.134 1.817,2.5 1.817,4.134c0,1.599 -0.6,2.966 -1.817,4.1c-1.2,1.133 -2.65,1.7 -4.35,1.7Z" style="fill:#808080;fill-rule:nonzero;"/><path id="_5_4" d="M558.829,279.698l0,32.717l-8.784,0l0,-54.583l8.451,0l0.05,13.233l-1.233,0c1.667,-5.049 4.033,-8.633 7.116,-10.75c3.067,-2.117 6.684,-3.167 10.818,-3.167c3.666,0 6.9,0.75 9.666,2.267c2.766,1.518 4.917,3.784 6.467,6.834c1.551,3.05 2.317,6.883 2.317,11.5l0,34.667l-8.784,0l0,-33.933c0,-4.2 -1.1,-7.483 -3.3,-9.867c-2.2,-2.383 -5.2,-3.567 -9.017,-3.567c-2.6,0 -4.933,0.567 -7.017,1.717c-2.083,1.133 -3.733,2.799 -4.933,4.983c-1.217,2.166 -1.817,4.833 -1.817,7.95Z" style="fill:#808080;fill-rule:nonzero;"/><path id="_6_5" d="M631.246,333.998c-4.033,0 -7.533,-0.516 -10.467,-1.533c-2.95,-1.033 -5.4,-2.383 -7.35,-4.084c-1.95,-1.7 -3.5,-3.533 -4.65,-5.516l7.134,-4.584c0.783,1.033 1.749,2.184 2.9,3.467c1.167,1.267 2.733,2.35 4.7,3.234c1.968,0.9 4.551,1.35 7.734,1.35c4.367,0 7.95,-1.05 10.767,-3.133c2.817,-2.083 4.217,-5.367 4.217,-9.85l0,-10.95l-0.817,0c-0.617,1.05 -1.5,2.283 -2.616,3.717c-1.116,1.434 -2.733,2.7 -4.833,3.783c-2.1,1.101 -4.917,1.633 -8.417,1.633c-4.367,0 -8.301,-1.033 -11.784,-3.1c-3.483,-2.066 -6.234,-5.082 -8.25,-9.05c-2.016,-3.984 -3.017,-8.817 -3.017,-14.5c0,-5.633 0.983,-10.533 2.967,-14.683c2,-4.149 4.733,-7.367 8.233,-9.633c3.5,-2.283 7.517,-3.417 12.033,-3.417c3.516,0 6.333,0.567 8.433,1.734c2.1,1.15 3.717,2.483 4.85,3.966c1.134,1.5 2.017,2.734 2.634,3.717l0.834,0l0,-8.733l8.55,0l0,56c0,4.684 -1.067,8.517 -3.184,11.5c-2.117,2.983 -4.967,5.167 -8.567,6.567c-3.6,1.4 -7.599,2.1 -12.033,2.1Zm-0.25,-30.267c3.334,0 6.133,-0.767 8.4,-2.283c2.284,-1.517 4.017,-3.684 5.184,-6.534c1.167,-2.85 1.75,-6.267 1.75,-10.233c0,-3.867 -0.567,-7.284 -1.734,-10.233c-1.15,-2.95 -2.867,-5.25 -5.15,-6.933c-2.267,-1.668 -5.083,-2.517 -8.451,-2.517c-3.45,0 -6.317,0.883 -8.633,2.667c-2.317,1.766 -4.05,4.133 -5.2,7.1c-1.167,2.967 -1.734,6.267 -1.734,9.917c0,3.75 0.583,7.05 1.75,9.917c1.183,2.867 2.917,5.1 5.233,6.7c2.3,1.617 5.167,2.433 8.583,2.433Z" style="fill:#808080;fill-rule:nonzero;"/><path id="_7_6" d="M698.596,312.415l0,-54.583l8.55,0l0.051,12.2l-0.684,0c0.733,-2.966 1.917,-5.417 3.534,-7.35c1.617,-1.933 3.5,-3.383 5.667,-4.367c2.166,-0.983 4.416,-1.467 6.767,-1.467c3.966,0 7.183,1.217 9.633,3.667c2.466,2.433 4.05,5.65 4.767,9.617l-1.183,0c0.666,-2.733 1.85,-5.1 3.567,-7.083c1.733,-1.984 3.816,-3.517 6.283,-4.584c2.45,-1.083 5.133,-1.617 8.033,-1.617c3.15,0 6.033,0.684 8.634,2.05c2.616,1.367 4.683,3.433 6.233,6.2c1.551,2.767 2.317,6.267 2.317,10.5l0,36.817l-8.784,0l0,-36.567c0,-3.95 -1.116,-6.767 -3.333,-8.45c-2.2,-1.701 -4.783,-2.55 -7.7,-2.55c-2.451,0 -4.551,0.516 -6.334,1.55c-1.766,1.017 -3.132,2.433 -4.1,4.217c-0.966,1.8 -1.434,3.85 -1.434,6.15l0,35.65l-8.799,0l0,-37.45c0,-3.033 -1,-5.466 -3.017,-7.333c-2.017,-1.85 -4.584,-2.783 -7.667,-2.783c-2.118,0 -4.117,0.5 -5.983,1.5c-1.884,0.983 -3.384,2.466 -4.517,4.416c-1.15,1.95 -1.717,4.383 -1.717,7.267l0,34.383l-8.784,-0Z" style="fill:#808080;fill-rule:nonzero;"/><path id="_8" d="M801.48,313.681c-3.45,0 -6.583,-0.65 -9.399,-1.95c-2.817,-1.299 -5.05,-3.2 -6.717,-5.717c-1.667,-2.499 -2.484,-5.55 -2.484,-9.133c0,-3.116 0.617,-5.649 1.851,-7.616c1.233,-1.95 2.883,-3.484 4.95,-4.617c2.066,-1.117 4.367,-1.95 6.867,-2.5c2.499,-0.567 5.033,-1 7.566,-1.333c3.25,-0.417 5.916,-0.733 7.967,-0.966c2.05,-0.234 3.567,-0.617 4.567,-1.167c0.983,-0.567 1.482,-1.5 1.482,-2.833l0,-0.3c0,-2.283 -0.416,-4.2 -1.266,-5.783c-0.85,-1.584 -2.117,-2.8 -3.816,-3.634c-1.684,-0.849 -3.801,-1.283 -6.351,-1.283c-2.6,0 -4.833,0.417 -6.683,1.233c-1.851,0.816 -3.367,1.833 -4.517,3.05c-1.15,1.217 -2.034,2.467 -2.617,3.733l-8.45,-2.783c1.4,-3.317 3.3,-5.917 5.666,-7.783c2.383,-1.884 5.001,-3.201 7.867,-3.984c2.867,-0.783 5.7,-1.167 8.5,-1.167c1.817,0 3.9,0.217 6.216,0.651c2.334,0.45 4.584,1.316 6.75,2.616c2.15,1.3 3.95,3.234 5.367,5.784c1.416,2.55 2.117,5.967 2.117,10.233l0,35.983l-8.634,0l0,-7.416l-0.582,0c-0.634,1.266 -1.617,2.567 -2.983,3.933c-1.367,1.35 -3.15,2.466 -5.334,3.383c-2.166,0.917 -4.817,1.367 -7.9,1.367Zm1.518,-7.766c3.249,-0 6,-0.634 8.25,-1.9c2.25,-1.266 3.95,-2.916 5.117,-4.95c1.183,-2.034 1.766,-4.167 1.766,-6.384l0,-7.566c-0.366,0.433 -1.133,0.816 -2.349,1.15c-1.2,0.35 -2.583,0.65 -4.117,0.9c-1.55,0.266 -3.05,0.483 -4.5,0.666c-1.449,0.183 -2.6,0.317 -3.433,0.417c-2.117,0.249 -4.1,0.699 -5.933,1.333c-1.85,0.633 -3.317,1.566 -4.417,2.783c-1.116,1.233 -1.667,2.883 -1.667,4.967c0,1.884 0.483,3.468 1.467,4.734c0.966,1.266 2.317,2.233 4,2.883c1.7,0.651 3.633,0.967 5.817,0.967Z" style="fill:#808080;fill-rule:nonzero;"/><path id="_9" d="M862.798,313.581c-4.517,0 -8.517,-1.15 -12,-3.467c-3.483,-2.301 -6.201,-5.584 -8.167,-9.817c-1.95,-4.217 -2.916,-9.233 -2.916,-15.033c0,-5.767 0.983,-10.75 2.95,-14.967c1.967,-4.217 4.7,-7.467 8.183,-9.733c3.483,-2.283 7.483,-3.417 12,-3.417c3.55,0 6.367,0.583 8.451,1.75c2.082,1.167 3.683,2.5 4.817,3.984c1.116,1.483 1.967,2.7 2.567,3.683l0.683,0l0,-26.9l8.784,0l0,72.75l-8.5,0l0,-8.45l-0.966,0c-0.6,1.016 -1.467,2.267 -2.617,3.783c-1.149,1.517 -2.783,2.867 -4.883,4.05c-2.1,1.2 -4.9,1.783 -8.383,1.783Zm1.333,-7.851c3.317,0 6.117,-0.882 8.383,-2.616c2.283,-1.75 4.016,-4.167 5.183,-7.25c1.167,-3.1 1.75,-6.667 1.75,-10.701c0,-4.033 -0.567,-7.55 -1.734,-10.566c-1.149,-3.017 -2.867,-5.367 -5.15,-7.05c-2.267,-1.701 -5.083,-2.55 -8.433,-2.55c-3.45,0 -6.333,0.9 -8.634,2.683c-2.283,1.8 -3.999,4.217 -5.15,7.25c-1.134,3.05 -1.701,6.467 -1.701,10.233c0,3.817 0.567,7.267 1.734,10.383c1.15,3.1 2.883,5.584 5.2,7.417c2.316,1.833 5.15,2.766 8.55,2.766Z" style="fill:#808080;fill-rule:nonzero;"/><path id="_10" d="M926.531,313.581c-5.284,0 -9.834,-1.167 -13.65,-3.517c-3.817,-2.333 -6.768,-5.616 -8.833,-9.8c-2.067,-4.2 -3.1,-9.1 -3.1,-14.7c0,-5.6 1,-10.533 3.017,-14.8c2.016,-4.266 4.884,-7.599 8.567,-10.017c3.7,-2.4 8.017,-3.6 12.967,-3.6c2.9,0 5.766,0.467 8.567,1.434c2.817,0.966 5.383,2.5 7.667,4.633c2.3,2.133 4.134,4.95 5.5,8.433c1.367,3.483 2.049,7.75 2.049,12.783l0,3.667l-42.383,0l0,-7.417l37.65,0l-4.101,2.734c0,-3.583 -0.566,-6.768 -1.683,-9.55c-1.133,-2.784 -2.8,-4.967 -5.016,-6.55c-2.2,-1.566 -4.95,-2.367 -8.25,-2.367c-3.283,0 -6.1,0.817 -8.451,2.418c-2.333,1.616 -4.133,3.716 -5.367,6.3c-1.233,2.6 -1.85,5.366 -1.85,8.333l0,4.933c0,4.033 0.7,7.45 2.1,10.267c1.401,2.816 3.367,4.95 5.883,6.399c2.517,1.45 5.451,2.184 8.767,2.184c2.15,0 4.1,-0.317 5.85,-0.933c1.767,-0.618 3.283,-1.551 4.55,-2.817c1.267,-1.251 2.25,-2.8 2.934,-4.65l8.483,2.333c-0.833,2.734 -2.267,5.151 -4.283,7.234c-2.034,2.082 -4.517,3.716 -7.5,4.883c-2.983,1.167 -6.351,1.75 -10.083,1.75Z" style="fill:#808080;fill-rule:nonzero;"/><path id="_11" d="M998.798,279.698l0,32.717l-8.784,0l0,-72.75l8.784,0l0,31.4l-1.517,0c1.667,-5.049 4.033,-8.633 7.116,-10.75c3.067,-2.117 6.684,-3.167 10.818,-3.167c3.666,0 6.9,0.75 9.683,2.267c2.784,1.518 4.95,3.784 6.5,6.834c1.551,3.05 2.317,6.883 2.317,11.5l0,34.667l-8.833,0l0,-33.933c0,-4.2 -1.1,-7.483 -3.3,-9.867c-2.2,-2.383 -5.2,-3.567 -9.017,-3.567c-2.6,0 -4.933,0.567 -7.017,1.717c-2.083,1.133 -3.733,2.799 -4.933,4.983c-1.217,2.166 -1.817,4.833 -1.817,7.95Z" style="fill:#808080;fill-rule:nonzero;"/><path id="_12" d="M1067.648,313.098c-3.667,0 -6.9,-0.75 -9.684,-2.268c-2.783,-1.517 -4.95,-3.8 -6.5,-6.866c-1.55,-3.051 -2.317,-6.883 -2.317,-11.467l0,-34.667l8.784,0l0,33.933c0,4.2 1.117,7.483 3.317,9.867c2.217,2.367 5.233,3.55 9.033,3.55c2.617,0 4.95,-0.567 7.017,-1.701c2.067,-1.133 3.7,-2.816 4.9,-5c1.217,-2.2 1.817,-4.85 1.817,-7.95l0,-32.7l8.833,0l0,54.583l-8.5,0l0,-13.233l1.183,0c-1.7,5.117 -4.1,8.717 -7.217,10.8c-3.1,2.083 -6.666,3.117 -10.667,3.117Z" style="fill:#808080;fill-rule:nonzero;"/><path id="_13" d="M1108.281,312.415l0,-54.583l8.55,0l0.051,12.2l-0.684,0c0.733,-2.966 1.917,-5.417 3.534,-7.35c1.617,-1.933 3.5,-3.383 5.667,-4.367c2.166,-0.983 4.416,-1.467 6.767,-1.467c3.966,0 7.183,1.217 9.633,3.667c2.466,2.433 4.05,5.65 4.767,9.617l-1.183,0c0.666,-2.733 1.85,-5.1 3.567,-7.083c1.733,-1.984 3.816,-3.517 6.283,-4.584c2.45,-1.083 5.133,-1.617 8.033,-1.617c3.15,0 6.033,0.684 8.634,2.05c2.616,1.367 4.683,3.433 6.233,6.2c1.551,2.767 2.317,6.267 2.317,10.5l0,36.817l-8.784,0l0,-36.567c0,-3.95 -1.116,-6.767 -3.333,-8.45c-2.2,-1.701 -4.783,-2.55 -7.7,-2.55c-2.451,0 -4.551,0.516 -6.334,1.55c-1.766,1.017 -3.132,2.433 -4.1,4.217c-0.966,1.8 -1.434,3.85 -1.434,6.15l0,35.65l-8.799,0l0,-37.45c0,-3.033 -1,-5.466 -3.017,-7.333c-2.017,-1.85 -4.584,-2.783 -7.667,-2.783c-2.118,0 -4.117,0.5 -5.983,1.5c-1.884,0.983 -3.384,2.466 -4.517,4.416c-1.15,1.95 -1.717,4.383 -1.717,7.267l0,34.383l-8.784,-0Z" style="fill:#808080;fill-rule:nonzero;"/><path id="_14" d="M1211.164,313.681c-3.45,0 -6.583,-0.65 -9.399,-1.95c-2.817,-1.299 -5.05,-3.2 -6.717,-5.717c-1.667,-2.499 -2.484,-5.55 -2.484,-9.133c0,-3.116 0.617,-5.649 1.851,-7.616c1.233,-1.95 2.883,-3.484 4.95,-4.617c2.066,-1.117 4.367,-1.95 6.867,-2.5c2.499,-0.567 5.033,-1 7.566,-1.333c3.25,-0.417 5.916,-0.733 7.967,-0.966c2.05,-0.234 3.567,-0.617 4.567,-1.167c0.983,-0.567 1.482,-1.5 1.482,-2.833l0,-0.3c0,-2.283 -0.416,-4.2 -1.266,-5.783c-0.85,-1.584 -2.117,-2.8 -3.816,-3.634c-1.684,-0.849 -3.801,-1.283 -6.351,-1.283c-2.6,0 -4.833,0.417 -6.683,1.233c-1.851,0.816 -3.367,1.833 -4.517,3.05c-1.15,1.217 -2.034,2.467 -2.617,3.733l-8.45,-2.783c1.4,-3.317 3.3,-5.917 5.666,-7.783c2.383,-1.884 5.001,-3.201 7.867,-3.984c2.867,-0.783 5.7,-1.167 8.5,-1.167c1.817,0 3.9,0.217 6.216,0.651c2.334,0.45 4.584,1.316 6.75,2.616c2.15,1.3 3.95,3.234 5.367,5.784c1.416,2.55 2.117,5.967 2.117,10.233l0,35.983l-8.634,0l0,-7.416l-0.582,0c-0.634,1.266 -1.617,2.567 -2.983,3.933c-1.367,1.35 -3.15,2.466 -5.334,3.383c-2.166,0.917 -4.817,1.367 -7.9,1.367Zm1.518,-7.766c3.249,-0 6,-0.634 8.25,-1.9c2.25,-1.266 3.95,-2.916 5.117,-4.95c1.183,-2.034 1.766,-4.167 1.766,-6.384l0,-7.566c-0.366,0.433 -1.133,0.816 -2.349,1.15c-1.2,0.35 -2.583,0.65 -4.117,0.9c-1.55,0.266 -3.05,0.483 -4.5,0.666c-1.449,0.183 -2.6,0.317 -3.433,0.417c-2.117,0.249 -4.1,0.699 -5.933,1.333c-1.85,0.633 -3.317,1.566 -4.417,2.783c-1.116,1.233 -1.667,2.883 -1.667,4.967c0,1.884 0.483,3.468 1.467,4.734c0.966,1.266 2.317,2.233 4,2.883c1.7,0.651 3.633,0.967 5.817,0.967Z" style="fill:#808080;fill-rule:nonzero;"/><path id="_15" d="M1260.815,279.698l0,32.717l-8.784,0l0,-54.583l8.451,0l0.05,13.233l-1.233,0c1.667,-5.049 4.033,-8.633 7.116,-10.75c3.067,-2.117 6.684,-3.167 10.818,-3.167c3.666,0 6.9,0.75 9.666,2.267c2.766,1.518 4.917,3.784 6.467,6.834c1.551,3.05 2.317,6.883 2.317,11.5l0,34.667l-8.784,0l0,-33.933c0,-4.2 -1.1,-7.483 -3.3,-9.867c-2.2,-2.383 -5.2,-3.567 -9.017,-3.567c-2.6,0 -4.933,0.567 -7.017,1.717c-2.083,1.133 -3.733,2.799 -4.933,4.983c-1.217,2.166 -1.817,4.833 -1.817,7.95Z" style="fill:#808080;fill-rule:nonzero;"/></g></svg>