<?xml version="1.0" encoding="UTF-8" standalone="no"?><!DOCTYPE svg PUBLIC "-//W3C//DTD SVG 1.1//EN" "http://www.w3.org/Graphics/SVG/1.1/DTD/svg11.dtd"><svg width="100%" height="100%" viewBox="0 0 1701 333" version="1.1" xmlns="http://www.w3.org/2000/svg" xmlns:xlink="http://www.w3.org/1999/xlink" xml:space="preserve" xmlns:serif="http://www.serif.com/" style="fill-rule:evenodd;clip-rule:evenodd;stroke-linejoin:round;stroke-miterlimit:2;"><g id="_2789793323136"><g><path d="M198.748,95.279c1.152,-4.565 0.904,-10.948 0.489,-15.652c-10.029,-3.386 -31.904,4.664 -40.716,9.189c-15.567,7.993 -40.683,34.387 -53.346,47.757c-7.981,8.426 -15.92,17.347 -24.63,25.214c-7.134,6.444 -16.221,21.438 -20.111,30.422c-16.543,38.206 -4.822,82.322 30.846,106.32c47.92,32.245 110.952,5.06 125.833,-47.929c9.769,-34.782 -3.589,-68.577 -28.089,-92.585c-9.345,-9.157 -30.73,-32.341 -37.123,-37.925c-2.249,0.915 -10.453,8.988 -11.685,11.209c7.17,7.504 14.026,14.635 21.286,21.94c15.059,15.155 30.639,28.356 38.324,48.729c4.421,11.719 5.87,25.291 3.463,37.711c-9.274,47.864 -64.004,73.558 -105.034,44.154c-18.198,-13.042 -29.817,-33.807 -29.186,-57.782c0.67,-25.448 12.237,-41.981 28.354,-58.62c14.252,-14.717 28.936,-28.971 43.175,-43.876c17.014,-17.81 30.879,-27.913 58.149,-28.276Z" style="fill:#1a1a1a;"/><path d="M53.582,77.44l16.511,-3.369c5.642,-22.005 15.37,-38.673 36.005,-48.898c45.272,-22.435 94.949,9.241 98.126,56.452c2.504,37.226 -19.037,52.256 -23.7,60.902l10.442,11.18c8.006,-6.165 17.578,-21.216 21.963,-30.85c17.47,-38.391 4.279,-86.219 -34.211,-109.676c-51.612,-31.454 -120.683,5.072 -125.135,64.258Z" style="fill:#1a1a1a;"/><path d="M49.356,211.899c-53.228,-24.808 -39.544,-111.516 22.436,-116.523c30.047,-2.427 44.5,14.764 50.437,17.413l10.338,-10.97c-13.344,-16.557 -44.261,-24.898 -65.342,-22.059c-49.747,6.698 -79.319,57.296 -62.466,104.523c6.324,17.719 24.791,39.569 43.139,44.722l1.459,-17.106Z" style="fill:#1a1a1a;"/><path d="M224.26,101.812c10.02,7.201 16.304,10.103 23.161,20.992c20.837,33.085 6.626,75.689 -23.215,89.049l1.15,16.604c4.313,0.671 15.449,-7.494 18.886,-10.419c32.993,-28.068 38.761,-72.886 14.405,-107.157c-6.228,-8.763 -25.235,-25.852 -33.206,-25.457l-1.182,16.388Z" style="fill:#1a1a1a;"/><path d="M74.383,234.701c18.823,1.58 45.407,-8.993 58.544,-21.963c5.609,-5.538 38.441,-37.052 40.364,-40.956l-10.904,-10.498c-14.466,12.463 -33.926,40.897 -57.709,51.282c-13.963,6.815 -11.931,6.107 -29.633,6.301c-0.246,3.956 -0.502,12.513 -0.663,15.833Z" style="fill:#1a1a1a;"/><path d="M140.68,212.717c9.822,17.044 39.892,24.407 58.45,21.974c1.111,-4.051 0.653,-11.926 -0.606,-15.984c-10.408,-0.343 -17.597,-1 -27.254,-5.02c-11.151,-4.642 -13.307,-7.707 -19.417,-11.956c-6.165,5.792 -6.43,6.076 -11.173,10.985Z" style="fill:#1a1a1a;"/><path d="M54.997,104.626c-0.03,12.768 17.255,42.324 27.381,48.546l10.531,-10.644c-5.194,-9.757 -13.648,-9.004 -22.544,-42.044c-4.648,0.424 -11.532,1.736 -15.369,4.142Z" style="fill:#1a1a1a;"/><path d="M100.349,172.008c5.993,5.944 15.177,17.926 22.015,22.167c2.398,-2.133 9.074,-8.7 10.656,-10.937c-1.819,-3.311 -17.97,-18.777 -22.025,-22.417l-10.645,11.187Z" style="fill:#1a1a1a;"/></g><text x="302.318px" y="186.052px" style="font-family:'Baro-Plain', 'Baro';font-weight:500;font-size:258.405px;fill:#1a1a1a;">MERCA<tspan x="1172.626px 1324.827px " y="186.052px 186.052px ">TO</tspan>R</text><text x="330.362px" y="312.414px" style="font-family:'Montserrat-Light', 'Montserrat';font-weight:300;font-size:100px;fill:#808080;">tr<tspan x="405.762px " y="312.414px ">a</tspan>ding made human</text></g></svg>