<svg width="800px" height="800px" viewBox="0 0 64 64" xmlns="http://www.w3.org/2000/svg" xmlns:xlink="http://www.w3.org/1999/xlink" aria-hidden="true" role="img" class="iconify iconify--emojione-monotone" preserveAspectRatio="xMidYMid meet"><path d="M62 32c0 16.6-13.4 30-30 30S2 48.6 2 32S15.4 2 32 2s30 13.4 30 30" fill="#000000"></path><g fill="#ffffff"><path d="M15.6 56.4c-.7-.4-1.2-1-1.5-1.8c-.3-.8-.4-2.1-.4-3.9c0-1.8.1-3.2.4-4c.2-.8.7-1.5 1.4-1.9c.7-.4 1.6-.6 2.6-.6c.8 0 1.5.1 2 .3c.6.2 1 .5 1.3.9c.3.4.6.9.7 1.5s.2 1.4.2 2.5v1.2h-2.9v-1.5c0-1.1-.1-1.9-.3-2.2c-.2-.4-.6-.6-1.2-.6c-.5 0-.9.2-1.1.5c-.2.3-.4 1-.4 2v5.7c0 1.1.1 1.8.4 2.1s.6.5 1.2.5s1-.2 1.2-.5c.2-.3.3-.9.3-1.8v-1.8h2.9v1.2c0 1.5-.1 2.5-.4 3.2c-.3.7-.8 1.2-1.4 1.6c-.6.4-1.5.5-2.5.5c-1.2 0-2.2-.2-2.9-.6"></path><path d="M29.4 49.5c0-2-.1-3.3-.4-3.9c-.2-.6-.6-.9-1.2-.9c-.5 0-.9.3-1.1.8s-.3 1.7-.3 3.4v2.8c0 1.8.1 3 .4 3.5s.6.8 1.2.8c.5 0 .9-.3 1.1-.8c.2-.6.3-1.7.3-3.4v-2.3m-5.9 1c0-2.4.1-4.1.4-5.1c.3-1 .8-1.7 1.6-2.2c.8-.5 1.7-.7 2.9-.7c1.1 0 2 .2 2.8.7c.7.4 1.3 1.1 1.6 2.1c.3 1 .5 2.6.5 4.9v1.6c0 2.4-.1 4.1-.4 5.1c-.3 1-.8 1.7-1.6 2.2c-.8.5-1.7.7-2.9.7c-1.1 0-2.1-.2-2.8-.7c-.8-.5-1.3-1.2-1.6-2.1c-.3-1-.5-2.6-.5-4.9v-1.6"></path><path d="M34.8 58.8V42.7h3.4l1.8 10.5h.1l1.8-10.5H45v16.1h-2.6V46.5h-.1l-2.1 12.3h-2.1l-2.1-12.3h-.1v12.3h-1.1"></path><path d="M46.6 58.8V42.7h4.8c1.1 0 2 .2 2.7.6c.7.4 1.2 1.1 1.5 2s.4 2.3.4 4.2v2.9c0 1.8-.1 3.1-.4 4c-.3.9-.8 1.5-1.5 2c-.7.4-1.6.6-2.7.6h-4.8zm2.9-13.8v11.6h1.3c.6 0 1.1-.2 1.3-.5c.2-.3.4-.9.5-1.7c0-.8.1-2 .1-3.6v-1.7c0-1.4 0-2.5-.1-3.2c-.1-.7-.2-1.2-.5-1.5s-.6-.4-1.2-.4h-1.4"></path><path d="M28.7 25.8c-3.5-.7-6-3.9-5.7-7.5c.4-3.4 3.3-6 6.7-6.2c3.7-.2 6.8 2.7 6.9 6.4c.1 3.8-2.7 7.1-6.4 7.5c-.5.1-1 .1-1.5-.2"></path><path d="M44.5 28.1c3.1 1.1 5 4.3 4.4 7.5c-.5 3.4-3.5 5.7-6.9 5.5c-3.7-.2-6.6-3.3-6.4-7.1c.2-3.7 3.4-6.5 7.1-6.3c.6.1 1.2.2 1.8.4"></path><path d="M19.5 28.1c-3.1 1.1-5 4.3-4.4 7.5c.5 3.4 3.5 5.7 6.9 5.5c3.7-.2 6.6-3.3 6.4-7.1c-.2-3.7-3.4-6.5-7.1-6.3c-.6.1-1.2.2-1.8.4"></path><ellipse cx="45" cy="35" rx="3" ry="3.5"></ellipse><ellipse cx="19" cy="35" rx="3" ry="3.5"></ellipse><path d="M32 39.8c-2.8 0-3.8 2.2-3.8 2.2s1 2.2 3.8 2.2s3.8-2.2 3.8-2.2s-1-2.2-3.8-2.2"></path></g></svg>
