<svg width="100" height="100" viewBox="0 0 3508 2481" xmlns="http://www.w3.org/2000/svg">
  <g transform="translate(-900, -1000)">
    <path d="M1079.363,1356.065c5.24,31.346 28.218,55.238 57.421,59.927c30.456,4.89 62.301,-15.052 72.665,-45.647c10.094,-29.797 4.069,-56.33 -15.246,-79.804c-11.455,-13.921 -24.471,-26.282 -36.54,-39.597c-2.201,-2.429 -4.377,-4.887 -6.657,-7.232c-1.581,-1.627 -1.77,-2.912 0.032,-4.597c2.469,-2.308 4.836,-4.768 7.024,-7.371c2.221,-2.642 3.866,-2.673 6.263,0.004c9.397,10.497 18.931,20.86 28.541,31.141c8.204,8.777 16.569,17.37 22.933,27.846c9.86,16.229 15.119,33.961 15.282,53.213c0.372,43.977 -30.356,82.445 -71.38,89.66c-43.589,7.666 -87.13,-23.96 -95.923,-69.79c-6.076,-31.673 1.458,-59.817 21.041,-84.187c12.968,-16.138 27.538,-30.76 41.744,-45.692c9.937,-10.445 19.233,-21.651 30.496,-30.592c14.357,-11.396 30.621,-17.313 48.597,-17.977c2.903,-0.107 4.489,0.86 4.343,4.214c-0.157,3.605 -0.075,7.221 -0.19,10.83c-0.063,1.992 -0.891,3.172 -3.065,3.165c-19.684,-0.066 -35.961,8.368 -49.339,23.065c-20.182,22.171 -41.748,42.936 -60.84,66.2c-10.297,12.547 -16.049,27.325 -17.703,43.965c-0.637,6.407 -0.307,12.648 0.499,19.255Z" fill="#1a1a1a"/>
    <path d="M1231.069,1190.069c0.543,28.539 -8.616,52.688 -26.98,73.088c-2.15,2.388 -3.527,2.64 -5.567,0.069c-1.964,-2.474 -4.148,-4.784 -6.426,-6.941c-2.134,-2.021 -2.161,-3.532 -0.142,-5.811c6.472,-7.305 12.17,-15.232 15.922,-24.525c15.576,-38.571 1.756,-82.152 -35.335,-99.138c-37.657,-17.246 -82.239,5.367 -92.006,50.016c-0.732,3.348 -1.936,4.791 -5.226,5.134c-4.174,0.435 -8.279,1.599 -12.698,2.507c-0.782,-4.537 0.562,-8.606 1.484,-12.614c8.309,-36.13 36.272,-62.864 70.985,-68.04c43.244,-6.449 84.858,24.88 94.063,70.753c1.006,5.011 1.24,10.105 1.926,15.501Z" fill="#1a1a1a"/>
    <path d="M1112.599,1209.526c-25.272,-11.35 -50.97,-6.608 -69.776,13.217c-12.667,13.353 -18.514,29.819 -17.781,48.691c0.915,23.575 11.23,41.462 30.238,53.681c2.835,1.823 3.724,3.847 3.014,6.981c-0.987,4.359 -0.093,8.937 -1.238,13.252c-16.843,0.005 -42.861,-33.502 -47.69,-61.187c-6.944,-39.806 14.272,-79.204 49.463,-93.337c33.675,-13.524 69.795,1.98 83.795,19.754c-3.143,3.464 -6.33,6.932 -9.463,10.452c-1.542,1.732 -2.701,0.608 -3.936,-0.416c-5.112,-4.237 -10.432,-8.132 -16.626,-11.087Z" fill="#1a1a1a"/>
    <path d="M1236.376,1325.771c41.54,-25.033 41.801,-88.468 0.431,-113.578c-1.889,-1.147 -2.721,-2.473 -2.502,-4.769c0.477,-5.005 0.819,-10.025 1.222,-15.117c21.181,6.502 48.796,34.74 49.101,76.013c0.248,33.446 -25.743,74.512 -48.758,77.061c-1.016,-0.96 -0.723,-2.28 -0.761,-3.478c-0.111,-3.479 -0.093,-6.951 -0.685,-10.41c-0.352,-2.058 -0.557,-4.306 1.952,-5.724Z" fill="#1a1a1a"/>
    <path d="M1131.15,1315.406c11.182,-10.749 21.18,-22.383 31.777,-33.381c2.356,-2.445 4.747,-4.857 6.998,-7.406c1.464,-1.657 2.635,-1.653 4.118,-0.042c2.629,2.856 5.359,5.61 8.086,8.364c1.22,1.232 1.569,2.344 0.215,3.774c-15.915,16.805 -30.569,35.049 -48.743,49.3c-13.623,10.683 -29.289,15.687 -46.243,16.323c-3.201,0.12 -4.687,-0.721 -4.714,-4.496c-0.024,-3.365 0.207,-6.706 0.243,-10.058c0.027,-2.569 1.142,-3.752 3.728,-3.757c17.048,-0.028 31.721,-6.51 44.535,-18.621Z" fill="#1a1a1a"/>
    <path d="M1156.585,1320.574c4.802,-4.736 4.841,-4.79 9.784,-0.867c11.649,9.246 24.63,14.429 39.3,14.327c2.703,-0.019 4.002,1.166 4.109,3.799c0.161,3.971 0.143,7.951 0.17,11.927c0.015,2.264 -1.469,2.49 -3.13,2.536c-5.444,0.15 -10.821,-0.575 -16.112,-1.753c-13.946,-3.107 -26.449,-9.52 -37.588,-18.896c-3.921,-3.301 -3.914,-3.477 -0.275,-7.268c1.173,-1.222 2.368,-2.422 3.743,-3.805Z" fill="#1a1a1a"/>
    <path d="M1071.053,1209.899c8.482,-2.136 8.559,-2.157 10.599,6.191c3.213,13.146 9.987,24.108 18.649,33.853c2.367,2.663 2.228,4.321 -0.312,6.646c-2.921,2.675 -5.468,5.805 -7.842,8.375c-1.58,0.251 -2.107,-0.507 -2.661,-1.11c-11.783,-12.821 -20.671,-27.445 -25.003,-44.895c-1.585,-6.386 -1.584,-6.387 4.254,-8.344c0.674,-0.226 1.354,-0.434 2.316,-0.716Z" fill="#1a1a1a"/>
    <path d="M1142.693,1296.336c-2.191,5.335 -6.723,8.245 -10.255,12.111c-0.801,0.877 -1.776,-0.063 -2.446,-0.753c-6.654,-6.855 -13.341,-13.677 -19.623,-20.924c-1.089,-1.257 -1.184,-2.297 -0.055,-3.519c2.876,-3.113 5.743,-6.236 8.582,-9.387c1.167,-1.295 2.187,-1.113 3.288,0.083c6.804,7.391 13.624,14.767 20.508,22.388Z" fill="#1a1a1a"/>
    <path d="M1170.731,1269.281l-25.298,23.958l-23.48,-24.792l25.298,-23.958l23.48,24.792Z" fill="#7d0000"/>
  </g>
</svg>
